<mxfile host="app.diagrams.net" modified="2023-12-21T08:40:22.651Z" agent="Mozilla/5.0 (Windows NT 10.0; Win64; x64) AppleWebKit/537.36 (KHTML, like Gecko) Chrome/119.0.0.0 Safari/537.36" etag="Prrer7joMaChKeYOZCX_" version="22.1.11" type="github">
  <diagram name="第 1 页" id="l7KdkhpSyxvTkMxQmVaT">
    <mxGraphModel dx="784" dy="392" grid="1" gridSize="10" guides="1" tooltips="1" connect="1" arrows="1" fold="1" page="1" pageScale="1" pageWidth="827" pageHeight="1169" math="0" shadow="0">
      <root>
        <mxCell id="0" />
        <mxCell id="1" parent="0" />
        <mxCell id="CvrxvYjm_2S9gg89ooR8-26" value="" style="rounded=0;whiteSpace=wrap;html=1;fillColor=#f5f5f5;fontColor=#333333;strokeColor=#666666;" vertex="1" parent="1">
          <mxGeometry x="120" y="30" width="460" height="240" as="geometry" />
        </mxCell>
        <mxCell id="CvrxvYjm_2S9gg89ooR8-1" value="&lt;h1&gt;凑十法&lt;/h1&gt;&lt;h1&gt;9&amp;nbsp; &amp;nbsp;+&amp;nbsp; &amp;nbsp;6&amp;nbsp; &amp;nbsp; &amp;nbsp; =&amp;nbsp; &amp;nbsp;15&lt;/h1&gt;" style="rounded=0;whiteSpace=wrap;html=1;fillColor=#ffe6cc;strokeColor=#d79b00;align=center;" vertex="1" parent="1">
          <mxGeometry x="140" y="40" width="370" height="90" as="geometry" />
        </mxCell>
        <mxCell id="CvrxvYjm_2S9gg89ooR8-4" value="" style="endArrow=none;dashed=1;html=1;rounded=0;exitX=0.5;exitY=0;exitDx=0;exitDy=0;entryX=0.461;entryY=1.024;entryDx=0;entryDy=0;entryPerimeter=0;" edge="1" parent="1" source="CvrxvYjm_2S9gg89ooR8-6" target="CvrxvYjm_2S9gg89ooR8-1">
          <mxGeometry width="50" height="50" relative="1" as="geometry">
            <mxPoint x="350" y="149" as="sourcePoint" />
            <mxPoint x="314" y="110" as="targetPoint" />
          </mxGeometry>
        </mxCell>
        <mxCell id="CvrxvYjm_2S9gg89ooR8-5" value="&lt;font style=&quot;font-size: 18px;&quot;&gt;&lt;b&gt;1&lt;/b&gt;&lt;/font&gt;" style="whiteSpace=wrap;html=1;aspect=fixed;" vertex="1" parent="1">
          <mxGeometry x="270" y="159" width="30" height="30" as="geometry" />
        </mxCell>
        <mxCell id="CvrxvYjm_2S9gg89ooR8-6" value="&lt;font style=&quot;font-size: 18px;&quot;&gt;&lt;b&gt;5&lt;/b&gt;&lt;/font&gt;" style="whiteSpace=wrap;html=1;aspect=fixed;" vertex="1" parent="1">
          <mxGeometry x="320" y="159" width="30" height="30" as="geometry" />
        </mxCell>
        <mxCell id="CvrxvYjm_2S9gg89ooR8-8" value="" style="endArrow=none;dashed=1;html=1;rounded=0;" edge="1" parent="1" target="CvrxvYjm_2S9gg89ooR8-1">
          <mxGeometry width="50" height="50" relative="1" as="geometry">
            <mxPoint x="290" y="160" as="sourcePoint" />
            <mxPoint x="350" y="140" as="targetPoint" />
          </mxGeometry>
        </mxCell>
        <mxCell id="CvrxvYjm_2S9gg89ooR8-9" value="" style="endArrow=none;dashed=1;html=1;rounded=0;entryX=0.27;entryY=0.889;entryDx=0;entryDy=0;entryPerimeter=0;exitX=0;exitY=0.5;exitDx=0;exitDy=0;" edge="1" parent="1" source="CvrxvYjm_2S9gg89ooR8-11" target="CvrxvYjm_2S9gg89ooR8-1">
          <mxGeometry width="50" height="50" relative="1" as="geometry">
            <mxPoint x="240" y="180" as="sourcePoint" />
            <mxPoint x="250" y="120" as="targetPoint" />
            <Array as="points" />
          </mxGeometry>
        </mxCell>
        <mxCell id="CvrxvYjm_2S9gg89ooR8-13" value="" style="endArrow=none;dashed=1;html=1;rounded=0;entryX=0.27;entryY=0.889;entryDx=0;entryDy=0;entryPerimeter=0;exitX=0;exitY=0.5;exitDx=0;exitDy=0;" edge="1" parent="1" source="CvrxvYjm_2S9gg89ooR8-5" target="CvrxvYjm_2S9gg89ooR8-11">
          <mxGeometry width="50" height="50" relative="1" as="geometry">
            <mxPoint x="270" y="174" as="sourcePoint" />
            <mxPoint x="240" y="120" as="targetPoint" />
            <Array as="points">
              <mxPoint x="240" y="174" />
            </Array>
          </mxGeometry>
        </mxCell>
        <mxCell id="CvrxvYjm_2S9gg89ooR8-11" value="&lt;font style=&quot;font-size: 18px;&quot;&gt;+&lt;/font&gt;" style="rounded=1;whiteSpace=wrap;html=1;labelBorderColor=none;arcSize=50;" vertex="1" parent="1">
          <mxGeometry x="240" y="154" width="20" height="20" as="geometry" />
        </mxCell>
        <mxCell id="CvrxvYjm_2S9gg89ooR8-14" value="&lt;font style=&quot;font-size: 18px;&quot;&gt;&lt;b&gt;10&lt;/b&gt;&lt;/font&gt;" style="whiteSpace=wrap;html=1;aspect=fixed;" vertex="1" parent="1">
          <mxGeometry x="235" y="200" width="30" height="30" as="geometry" />
        </mxCell>
        <mxCell id="CvrxvYjm_2S9gg89ooR8-17" value="" style="endArrow=classic;html=1;rounded=0;exitX=0.5;exitY=1;exitDx=0;exitDy=0;entryX=0.5;entryY=0;entryDx=0;entryDy=0;" edge="1" parent="1" source="CvrxvYjm_2S9gg89ooR8-11" target="CvrxvYjm_2S9gg89ooR8-14">
          <mxGeometry width="50" height="50" relative="1" as="geometry">
            <mxPoint x="265" y="270" as="sourcePoint" />
            <mxPoint x="315" y="220" as="targetPoint" />
          </mxGeometry>
        </mxCell>
        <mxCell id="CvrxvYjm_2S9gg89ooR8-20" value="" style="endArrow=none;dashed=1;html=1;rounded=0;exitX=1;exitY=0.75;exitDx=0;exitDy=0;entryX=0.5;entryY=1;entryDx=0;entryDy=0;" edge="1" parent="1" source="CvrxvYjm_2S9gg89ooR8-14" target="CvrxvYjm_2S9gg89ooR8-6">
          <mxGeometry width="50" height="50" relative="1" as="geometry">
            <mxPoint x="320" y="150" as="sourcePoint" />
            <mxPoint x="370" y="100" as="targetPoint" />
            <Array as="points">
              <mxPoint x="335" y="223" />
            </Array>
          </mxGeometry>
        </mxCell>
        <mxCell id="CvrxvYjm_2S9gg89ooR8-22" value="&lt;font style=&quot;font-size: 18px;&quot;&gt;+&lt;/font&gt;" style="rounded=1;whiteSpace=wrap;html=1;labelBorderColor=none;arcSize=50;" vertex="1" parent="1">
          <mxGeometry x="291" y="199" width="20" height="20" as="geometry" />
        </mxCell>
        <mxCell id="CvrxvYjm_2S9gg89ooR8-23" value="&lt;h5 style=&quot;font-size: 16px;&quot;&gt;&lt;font color=&quot;#ff2617&quot;&gt;&lt;font style=&quot;font-size: 16px;&quot;&gt;拆小数&lt;br&gt;&lt;/font&gt;&lt;font style=&quot;font-size: 16px;&quot;&gt;补大数&lt;br&gt;&lt;/font&gt;&lt;font style=&quot;font-size: 16px;&quot;&gt;凑成10&lt;br&gt;&lt;/font&gt;&lt;font style=&quot;font-size: 16px;&quot;&gt;加剩数&lt;/font&gt;&lt;/font&gt;&lt;/h5&gt;" style="rounded=1;whiteSpace=wrap;html=1;fillColor=#f8cecc;strokeColor=#b85450;" vertex="1" parent="1">
          <mxGeometry x="360" y="140" width="200" height="116" as="geometry" />
        </mxCell>
        <mxCell id="CvrxvYjm_2S9gg89ooR8-27" value="" style="rounded=0;whiteSpace=wrap;html=1;fillColor=#f5f5f5;fontColor=#333333;strokeColor=#666666;" vertex="1" parent="1">
          <mxGeometry x="120" y="320" width="460" height="240" as="geometry" />
        </mxCell>
        <mxCell id="CvrxvYjm_2S9gg89ooR8-28" value="&lt;h1&gt;凑十法&lt;/h1&gt;&lt;h1&gt;9&amp;nbsp; &amp;nbsp;+&amp;nbsp; &amp;nbsp;6&amp;nbsp; &amp;nbsp; &amp;nbsp; =&amp;nbsp; &amp;nbsp;15&lt;/h1&gt;" style="rounded=0;whiteSpace=wrap;html=1;fillColor=#ffe6cc;strokeColor=#d79b00;align=center;" vertex="1" parent="1">
          <mxGeometry x="140" y="330" width="370" height="90" as="geometry" />
        </mxCell>
        <mxCell id="CvrxvYjm_2S9gg89ooR8-29" value="" style="endArrow=none;dashed=1;html=1;rounded=0;exitX=0.5;exitY=0;exitDx=0;exitDy=0;entryX=0.461;entryY=1.024;entryDx=0;entryDy=0;entryPerimeter=0;" edge="1" parent="1" source="CvrxvYjm_2S9gg89ooR8-31" target="CvrxvYjm_2S9gg89ooR8-28">
          <mxGeometry width="50" height="50" relative="1" as="geometry">
            <mxPoint x="350" y="439" as="sourcePoint" />
            <mxPoint x="314" y="400" as="targetPoint" />
          </mxGeometry>
        </mxCell>
        <mxCell id="CvrxvYjm_2S9gg89ooR8-30" value="&lt;font style=&quot;font-size: 18px;&quot;&gt;&lt;b&gt;1&lt;/b&gt;&lt;/font&gt;" style="whiteSpace=wrap;html=1;aspect=fixed;" vertex="1" parent="1">
          <mxGeometry x="270" y="449" width="30" height="30" as="geometry" />
        </mxCell>
        <mxCell id="CvrxvYjm_2S9gg89ooR8-31" value="&lt;font style=&quot;font-size: 18px;&quot;&gt;&lt;b&gt;5&lt;/b&gt;&lt;/font&gt;" style="whiteSpace=wrap;html=1;aspect=fixed;" vertex="1" parent="1">
          <mxGeometry x="320" y="449" width="30" height="30" as="geometry" />
        </mxCell>
        <mxCell id="CvrxvYjm_2S9gg89ooR8-32" value="" style="endArrow=none;dashed=1;html=1;rounded=0;" edge="1" parent="1" target="CvrxvYjm_2S9gg89ooR8-28">
          <mxGeometry width="50" height="50" relative="1" as="geometry">
            <mxPoint x="290" y="450" as="sourcePoint" />
            <mxPoint x="350" y="430" as="targetPoint" />
          </mxGeometry>
        </mxCell>
        <mxCell id="CvrxvYjm_2S9gg89ooR8-33" value="" style="endArrow=none;dashed=1;html=1;rounded=0;entryX=0.27;entryY=0.889;entryDx=0;entryDy=0;entryPerimeter=0;exitX=0;exitY=0.5;exitDx=0;exitDy=0;" edge="1" parent="1" source="CvrxvYjm_2S9gg89ooR8-35" target="CvrxvYjm_2S9gg89ooR8-28">
          <mxGeometry width="50" height="50" relative="1" as="geometry">
            <mxPoint x="240" y="470" as="sourcePoint" />
            <mxPoint x="250" y="410" as="targetPoint" />
            <Array as="points" />
          </mxGeometry>
        </mxCell>
        <mxCell id="CvrxvYjm_2S9gg89ooR8-34" value="" style="endArrow=none;dashed=1;html=1;rounded=0;entryX=0.27;entryY=0.889;entryDx=0;entryDy=0;entryPerimeter=0;exitX=0;exitY=0.5;exitDx=0;exitDy=0;" edge="1" parent="1" source="CvrxvYjm_2S9gg89ooR8-30" target="CvrxvYjm_2S9gg89ooR8-35">
          <mxGeometry width="50" height="50" relative="1" as="geometry">
            <mxPoint x="270" y="464" as="sourcePoint" />
            <mxPoint x="240" y="410" as="targetPoint" />
            <Array as="points">
              <mxPoint x="240" y="464" />
            </Array>
          </mxGeometry>
        </mxCell>
        <mxCell id="CvrxvYjm_2S9gg89ooR8-35" value="&lt;font style=&quot;font-size: 18px;&quot;&gt;+&lt;/font&gt;" style="rounded=1;whiteSpace=wrap;html=1;labelBorderColor=none;arcSize=50;" vertex="1" parent="1">
          <mxGeometry x="240" y="444" width="20" height="20" as="geometry" />
        </mxCell>
        <mxCell id="CvrxvYjm_2S9gg89ooR8-36" value="&lt;font style=&quot;font-size: 18px;&quot;&gt;&lt;b&gt;10&lt;/b&gt;&lt;/font&gt;" style="whiteSpace=wrap;html=1;aspect=fixed;" vertex="1" parent="1">
          <mxGeometry x="235" y="490" width="30" height="30" as="geometry" />
        </mxCell>
        <mxCell id="CvrxvYjm_2S9gg89ooR8-37" value="" style="endArrow=classic;html=1;rounded=0;exitX=0.5;exitY=1;exitDx=0;exitDy=0;entryX=0.5;entryY=0;entryDx=0;entryDy=0;" edge="1" parent="1" source="CvrxvYjm_2S9gg89ooR8-35" target="CvrxvYjm_2S9gg89ooR8-36">
          <mxGeometry width="50" height="50" relative="1" as="geometry">
            <mxPoint x="265" y="560" as="sourcePoint" />
            <mxPoint x="315" y="510" as="targetPoint" />
          </mxGeometry>
        </mxCell>
        <mxCell id="CvrxvYjm_2S9gg89ooR8-38" value="" style="endArrow=none;dashed=1;html=1;rounded=0;exitX=1;exitY=0.75;exitDx=0;exitDy=0;entryX=0.5;entryY=1;entryDx=0;entryDy=0;" edge="1" parent="1" source="CvrxvYjm_2S9gg89ooR8-36" target="CvrxvYjm_2S9gg89ooR8-31">
          <mxGeometry width="50" height="50" relative="1" as="geometry">
            <mxPoint x="320" y="440" as="sourcePoint" />
            <mxPoint x="370" y="390" as="targetPoint" />
            <Array as="points">
              <mxPoint x="335" y="513" />
            </Array>
          </mxGeometry>
        </mxCell>
        <mxCell id="CvrxvYjm_2S9gg89ooR8-39" value="&lt;font style=&quot;font-size: 18px;&quot;&gt;+&lt;/font&gt;" style="rounded=1;whiteSpace=wrap;html=1;labelBorderColor=none;arcSize=50;" vertex="1" parent="1">
          <mxGeometry x="291" y="489" width="20" height="20" as="geometry" />
        </mxCell>
        <mxCell id="CvrxvYjm_2S9gg89ooR8-40" value="&lt;h5 style=&quot;font-size: 16px;&quot;&gt;&lt;font color=&quot;#ff2617&quot;&gt;&lt;font style=&quot;font-size: 16px;&quot;&gt;拆小数&lt;br&gt;&lt;/font&gt;&lt;font style=&quot;font-size: 16px;&quot;&gt;补大数&lt;br&gt;&lt;/font&gt;&lt;font style=&quot;font-size: 16px;&quot;&gt;凑成10&lt;br&gt;&lt;/font&gt;&lt;font style=&quot;font-size: 16px;&quot;&gt;加剩数&lt;/font&gt;&lt;/font&gt;&lt;/h5&gt;" style="rounded=1;whiteSpace=wrap;html=1;fillColor=#f8cecc;strokeColor=#b85450;" vertex="1" parent="1">
          <mxGeometry x="360" y="430" width="200" height="116" as="geometry" />
        </mxCell>
      </root>
    </mxGraphModel>
  </diagram>
</mxfile>
